<svg width="166" height="50" xmlns="http://www.w3.org/2000/svg">

 <g>
  <title>Layer 1</title>
  <path id="svg_1" fill="#8fb3ff" d="m59.61,12.33c-0.48,0.75 -0.96,1.49 -1.43,2.24c-2.31,3.66 -4.62,7.33 -6.93,10.99c-0.07,0.11 -0.13,0.23 -0.19,0.35c-0.18,0.26 -0.38,0.52 -0.55,0.79c-0.64,1.02 -1.27,2.05 -1.91,3.06c-0.85,1.34 -2.06,2.22 -3.59,2.64c-0.69,0.19 -1.4,0.21 -2.11,0.2c-0.88,0 -1.68,-0.27 -2.42,-0.67c-0.56,-0.3 -1.06,-0.7 -1.57,-1.08c-0.92,-0.68 -1.84,-1.39 -2.75,-2.08c-0.15,-0.11 -0.29,-0.23 -0.43,-0.34c-0.07,-0.06 -0.13,-0.13 -0.21,-0.19c-1.76,-1.32 -3.51,-2.64 -5.27,-3.95c-1.09,-0.82 -2.17,-0.81 -3.26,0.02c-1.72,1.3 -3.43,2.6 -5.15,3.91c-0.09,0.06 -0.16,0.14 -0.24,0.21c-0.41,0.3 -0.82,0.59 -1.22,0.9c-1.52,1.15 -3.04,2.31 -4.56,3.46c-0.56,0.42 -1.11,0.85 -1.68,1.27c-1.19,0.89 -2.71,0.17 -3.05,-1.06c-0.15,-0.55 -0.06,-1.07 0.24,-1.55c0.53,-0.84 1.06,-1.69 1.59,-2.53c0.51,-0.82 1.01,-1.65 1.51,-2.47c0.6,-0.97 1.2,-1.93 1.8,-2.9c0.18,-0.28 0.36,-0.56 0.53,-0.84c0.26,-0.38 0.54,-0.76 0.79,-1.15c1.91,-3.03 3.82,-6.07 5.74,-9.1c0.25,-0.4 0.51,-0.8 0.81,-1.15c0.37,-0.44 0.84,-0.76 1.33,-1.06c0.06,-0.03 0.11,-0.07 0.16,-0.11c0.55,-0.24 1.1,-0.51 1.71,-0.59c0.5,-0.07 1.01,-0.14 1.51,-0.12c0.72,0.03 1.43,0.14 2.09,0.44c0.2,0.09 0.41,0.18 0.61,0.26c0.19,0.12 0.4,0.23 0.58,0.36c1.19,0.89 2.38,1.77 3.56,2.67c2.08,1.57 4.16,3.14 6.25,4.7c0.82,0.61 1.99,0.66 2.74,0.09c0.33,-0.25 0.68,-0.49 1.02,-0.74c0.47,-0.34 0.94,-0.68 1.4,-1.03c0.75,-0.58 1.49,-1.18 2.24,-1.75c0.83,-0.64 1.68,-1.26 2.52,-1.9c0.76,-0.57 1.52,-1.14 2.27,-1.71c0.3,-0.23 0.59,-0.49 0.88,-0.73c0.28,-0.19 0.56,-0.38 0.83,-0.58c0.72,-0.52 1.42,-1.06 2.14,-1.58c0.77,-0.55 1.72,-0.47 2.42,0.17c0.69,0.63 0.85,1.57 0.38,2.39c-0.28,0.49 -0.6,0.96 -0.9,1.44c-0.08,0.13 -0.15,0.26 -0.22,0.39l-0.01,0.01z" class="cls-1"/>
  <path id="svg_2" fill="#fbae17" d="m59.61,19.3c-0.48,0.75 -0.96,1.49 -1.43,2.24c-2.31,3.66 -4.62,7.33 -6.93,10.99c-0.07,0.11 -0.13,0.23 -0.19,0.35c-0.18,0.26 -0.38,0.52 -0.55,0.79c-0.64,1.02 -1.27,2.05 -1.91,3.06c-0.85,1.34 -2.06,2.22 -3.59,2.64c-0.69,0.19 -1.4,0.21 -2.11,0.2c-0.88,0 -1.68,-0.27 -2.42,-0.67c-0.56,-0.3 -1.06,-0.7 -1.57,-1.08c-0.92,-0.68 -1.84,-1.39 -2.75,-2.08c-0.15,-0.11 -0.29,-0.23 -0.43,-0.34c-0.07,-0.06 -0.13,-0.13 -0.21,-0.19c-1.76,-1.32 -3.51,-2.64 -5.27,-3.95c-1.09,-0.82 -2.17,-0.81 -3.26,0.02c-1.72,1.3 -3.43,2.6 -5.15,3.91c-0.09,0.06 -0.16,0.14 -0.24,0.21c-0.41,0.3 -0.82,0.59 -1.22,0.9c-1.52,1.15 -3.04,2.31 -4.56,3.46c-0.56,0.42 -1.11,0.85 -1.68,1.27c-1.19,0.89 -2.71,0.17 -3.05,-1.06c-0.15,-0.55 -0.06,-1.07 0.24,-1.55c0.53,-0.84 1.06,-1.69 1.59,-2.53c0.51,-0.82 1.01,-1.65 1.51,-2.47c0.6,-0.97 1.2,-1.93 1.8,-2.9c0.18,-0.28 0.36,-0.56 0.53,-0.84c0.26,-0.38 0.54,-0.76 0.79,-1.15c1.91,-3.03 3.82,-6.07 5.74,-9.1c0.25,-0.4 0.51,-0.8 0.81,-1.15c0.37,-0.44 0.84,-0.76 1.33,-1.06c0.06,-0.03 0.11,-0.07 0.16,-0.11c0.55,-0.24 1.1,-0.51 1.71,-0.59c0.5,-0.07 1.01,-0.14 1.51,-0.12c0.72,0.03 1.43,0.14 2.09,0.44c0.2,0.09 0.41,0.18 0.61,0.26c0.19,0.12 0.4,0.23 0.58,0.36c1.19,0.89 2.38,1.77 3.56,2.67c2.08,1.57 4.16,3.14 6.25,4.7c0.82,0.61 1.99,0.66 2.74,0.09c0.33,-0.25 0.68,-0.49 1.02,-0.74c0.47,-0.34 0.94,-0.68 1.4,-1.03c0.75,-0.58 1.49,-1.18 2.24,-1.75c0.83,-0.64 1.68,-1.26 2.52,-1.9c0.76,-0.57 1.52,-1.14 2.27,-1.71c0.3,-0.23 0.59,-0.49 0.88,-0.73c0.28,-0.19 0.56,-0.38 0.83,-0.58c0.72,-0.52 1.42,-1.06 2.14,-1.58c0.77,-0.55 1.72,-0.47 2.42,0.17c0.69,0.63 0.85,1.57 0.38,2.39c-0.28,0.49 -0.6,0.96 -0.9,1.44c-0.08,0.13 -0.15,0.26 -0.22,0.39l-0.01,0.01z" class="cls-2"/>
  <path id="svg_3" d="m70.97,13.85l8.73,0l0,2.62l-5.77,0l0,7.34l5.04,0l0,2.49l-5.04,0l0,7.91l5.77,0l0,2.62l-8.73,0l0,-22.98z"/>
  <path id="svg_4" d="m80.9,25.35c0,-8.54 1.92,-11.78 6.08,-11.78c4.03,-0.03 5.64,2.68 5.89,8.07l-2.87,0c-0.25,-3.88 -1.01,-5.45 -2.99,-5.45c-2.46,0 -3.09,3.43 -3.09,9.17s0.66,9.14 3.06,9.14c2.11,0 2.8,-1.83 3.02,-5.51l2.87,0c-0.25,6.21 -2.43,8.16 -6.05,8.16c-4.03,0 -5.92,-3.31 -5.92,-11.79l0,-0.01z"/>
  <path id="svg_5" d="m94.83,25.35c0,-8.57 1.95,-11.78 6.08,-11.78s6.11,3.25 6.11,11.78s-1.92,11.79 -6.11,11.79s-6.08,-3.25 -6.08,-11.79zm9.17,0c0,-5.92 -0.66,-9.17 -3.09,-9.17s-3.06,3.43 -3.06,9.17s0.66,9.14 3.06,9.14s3.09,-3.47 3.09,-9.14z"/>
  <path id="svg_6" d="m109.45,13.85l4.35,0l2.99,17.2l0.13,0l2.96,-17.2l4.41,0l0,22.97l-2.87,0l0,-9.64l0.09,-9.64l-0.22,0l-3.4,19.28l-2.05,0l-3.43,-19.28l-0.19,0l0.09,9.64l0,9.64l-2.87,0l0,-22.97l0.01,0z"/>
  <path id="svg_7" d="m137,13.85l4.1,0l4.47,22.97l-2.93,0l-0.98,-5.33l-5.2,0l-0.98,5.33l-2.93,0l4.44,-22.97l0.01,0zm4.32,15.31l-1.42,-7.97l-0.76,-4.47l-0.16,0l-0.72,4.51l-1.45,7.94l4.51,0l0,-0.01z"/>
  <path id="svg_8" d="m147.37,13.85l3.09,0l0,22.97l-3.09,0l0,-22.97z"/>
 </g>
</svg>
