<svg width="710" height="139" xmlns="http://www.w3.org/2000/svg" xml:space="preserve" version="1.1">

 <g>
  <title>Layer 1</title>
  <path id="svg_1" fill="#1A1E22" d="m282.2,80.3c0,15.5 -11.4,28.2 -25.7,28.2c-8.7,0 -15.3,-4 -19.3,-10.8l0,9.7l-12.2,0l0,-77.3l12.3,0l0,33.1c3.9,-6.8 10.5,-10.8 19.3,-10.8c14.3,-0.2 25.6,12.3 25.6,27.9zm-12,0c0,-9.1 -7.2,-16.3 -16.3,-16.3c-9.5,0 -16.6,7 -16.6,16.3c0,9.4 7,16.5 16.6,16.5c9.2,0 16.3,-7.4 16.3,-16.5zm74.6,0.1c0,16 -12.3,28 -28,28s-28,-12.1 -28,-28s12.1,-28.2 28,-28.2s28,12.2 28,28.2zm-43.9,0c0,9.2 6.8,16.2 15.8,16.2c8.9,0 15.9,-7 15.9,-16.2c0,-9.3 -7,-16.3 -15.9,-16.3c-8.9,0 -15.8,7 -15.8,16.3zm70.1,-15.4l0,21.7c0,6.8 4.2,9.6 10.2,9.6c1.3,0 2.8,-0.1 4,-0.4l0,11.4c-1.9,0.4 -4.6,0.7 -6.6,0.7c-11.9,0 -19.9,-7.3 -19.9,-21l0,-22l-10.2,0l0,-11.7l10.2,0l0,-14.5l12.3,0l0,14.5l14.2,0l0,11.7l-14.2,0zm81,15.4c0,15.5 -11.4,28 -25.7,28c-8.7,0 -15.3,-4 -19.3,-10.8l0,28.6l-12.3,0l0,-72.9l12.3,0l0,9.7c3.9,-6.8 10.5,-10.8 19.3,-10.8c14.3,0 25.7,12.6 25.7,28.2zm-12,0c0,-9.2 -7.2,-16.5 -16.3,-16.5c-9.5,0 -16.6,7 -16.6,16.5c0,9.3 7,16.3 16.6,16.3c9.1,0.1 16.3,-7.3 16.3,-16.3zm54.3,-27.5l0,11.3c-1.7,-0.4 -3.6,-0.8 -5.4,-0.8c-7.8,0 -14.2,5.4 -14.2,15.1l0,28.8l-12.3,0l0,-54l12.3,0l0,7.2c3.2,-5.2 8.1,-8.3 14.6,-8.3c1.6,0 3.4,0.4 5,0.7zm55.8,31.5l-41.4,0c1.5,7.9 7,12.9 15.8,12.9c6.6,0 11.8,-3.1 12.9,-7.7l12.4,0c-2,11.4 -12.3,18.9 -25.5,18.9c-15.8,0 -28,-12.3 -28,-28.4c0,-15.7 12.3,-27.8 27.8,-27.8c14.6,0 26.4,11.2 26.4,27c-0.1,1.3 -0.1,4.1 -0.4,5.1zm-13,-10.5c-1.1,-6.2 -6.3,-10.5 -13.7,-10.5c-7.3,0 -12.6,3.9 -14.4,10.5l28.1,0zm20,16.1l11.9,0c0.4,4.7 5.1,7.8 11.2,7.8c6,0 9.5,-2.5 9.5,-6.3c0,-11.6 -31.2,-2.2 -31.2,-22.7c0,-9.4 7.8,-16.6 20.4,-16.6c11.2,0 20.9,6 22.1,16.9l-12.4,0c-0.6,-3.6 -4.3,-6.6 -10,-6.6c-4.9,0 -8.3,2.1 -8.3,5.5c0,10.9 31.4,0.9 31.4,23.4c0,9.7 -8.9,17 -20.9,17c-13.4,0.1 -22.6,-6.8 -23.7,-18.4zm50.4,0l11.8,0c0.4,4.7 5.1,7.8 11.2,7.8c6,0 9.5,-2.5 9.5,-6.3c0,-11.6 -31.2,-2.2 -31.2,-22.7c0,-9.4 7.8,-16.6 20.4,-16.6c11.2,0 20.9,6 22.1,16.9l-12.3,0c-0.6,-3.6 -4.3,-6.6 -10,-6.6c-4.9,0 -8.3,2.1 -8.3,5.5c0,10.9 31.4,0.9 31.4,23.4c0,9.7 -8.9,17 -20.9,17c-13.3,0.1 -22.5,-6.8 -23.7,-18.4z" class="st0"/>
  <path id="svg_2" fill="#1A1E22" d="m118.8,135.4c36.8,0 66.6,-29.8 66.6,-66.6c0,-36.8 -29.8,-66.6 -66.6,-66.6c-36.8,0 -66.6,29.8 -66.6,66.6c-0.1,36.8 29.8,66.6 66.6,66.6z" class="st0"/>
  <path id="svg_3" fill="#FFFFFF" d="m137.5,77.2l5,2.9l5,2.9c1.2,0.7 2,2 1.9,3.3l0,11.6c0,1.4 -0.7,2.6 -1.9,3.3l-5,2.9l-5,2.9c-1.2,0.7 -2.6,0.7 -3.9,0l-5,-2.9l-5,-2.9c-1.2,-0.7 -2,-2 -1.9,-3.3l0,-10.9l-23.4,-13.5l4.6,6.8l-5.7,3.3c-1.2,0.7 -2.6,0.7 -3.9,0l-5,-2.9l-5,-2.9c-1.2,-0.7 -1.9,-1.9 -1.9,-3.3l0,-11.6c0,-1.4 0.7,-2.6 1.9,-3.3l5,-2.9l5,-2.9c1.2,-0.7 2.6,-0.7 3.9,0l5,2.9l4.4,2.5l15.1,-8.7l0,-10.8c0,-1.4 0.7,-2.6 1.9,-3.3l5,-2.9l5,-2.9c1.2,-0.7 2.6,-0.7 3.9,0l5,2.9l5,2.9c1.2,0.7 2,2 1.9,3.3l0,11.6c0,1.4 -0.7,2.6 -1.9,3.3l-5,2.9l-5,2.9c-1.2,0.7 -2.6,0.7 -3.9,0l-5,-2.9l-0.3,-0.1l5.3,-7.8l-9.4,5.4l-15.1,8.7l0,10.3l15.1,8.7l4.4,-2.5l5,-2.9c1.2,-0.9 2.8,-0.8 3.9,-0.1z" class="st1"/>
 </g>
</svg>
